<?xml version="1.0" encoding="UTF-8" standalone="no"?>
<svg
   xmlns:dc="http://purl.org/dc/elements/1.1/"
   xmlns:cc="http://creativecommons.org/ns#"
   xmlns:rdf="http://www.w3.org/1999/02/22-rdf-syntax-ns#"
   xmlns:svg="http://www.w3.org/2000/svg"
   xmlns="http://www.w3.org/2000/svg"
   viewBox="0 0 161.08 35.386665"
   height="35.386665"
   width="161.08"
   xml:space="preserve"
   id="svg2"
   version="1.1"><metadata
     id="metadata8"><rdf:RDF><cc:Work
         rdf:about=""><dc:format>image/svg+xml</dc:format><dc:type
           rdf:resource="http://purl.org/dc/dcmitype/StillImage" /></cc:Work></rdf:RDF></metadata><defs
     id="defs6" /><g
     transform="matrix(1.3333333,0,0,-1.3333333,0,35.386667)"
     id="g10"><g
       transform="scale(0.1)"
       id="g12"><path
         id="path14"
         style="fill:#66c655;fill-opacity:1;fill-rule:nonzero;stroke:none"
         d="m 514.957,111.793 c -0.328,0.629 -0.035,1.531 -1.84,1.758 -2.816,-0.559 -1.344,-5.793 -2.625,-7.567 -1.758,-4.906 -5.547,-9.1246 -10.801,-12.6754 -9.269,-6.2578 -23.218,-10.375 -39.253,-12.2461 -9.168,-1.0664 -18.981,-1.4297 -29,-1.0078 -18.829,0.7656 -37.872,3.2344 -56.852,6.7617 -16.059,2.9844 -32.039,6.7617 -47.82,11.2266 -31.067,8.793 -61.282,19.934 -89.227,31.875 -25.226,10.723 -49.617,22.594 -75.469,32.879 -13.668,5.441 -27.812,10.363 -42.636,14.508 -1.789,0.496 -3.524,1.062 -5.336,1.539 C 69.6641,191.84 17.1484,189.633 0,170.707 0.253906,170.566 0.507813,170.43 0.761719,170.289 41.0742,182.324 73.3516,177.605 116.836,159.418 c 4.547,-1.902 9.09,-3.809 13.906,-6.004 10.039,-4.328 19.844,-8.824 29.582,-13.363 32.336,-15.094 63.614,-30.949 97.629,-44.8401 14.832,-6.0781 31.156,-12.1171 48.172,-17.6953 15.465,-5.0703 31.488,-9.7422 47.531,-13.707 42.02,-10.3867 83.977,-15.8398 115.481,-10.5391 15.668,2.6368 28.761,7.9219 37.937,16.6172 3,2.8438 5.614,6.0156 7.739,9.6094 5.941,9.4727 5.308,20.8989 0.144,32.2969" /><path
         id="path16"
         style="fill:#ffffff;fill-opacity:1;fill-rule:nonzero;stroke:none"
         d="m 539.109,144.848 c -28.718,0 -51.957,23.703 -51.957,52.793 0,28.957 23.239,52.656 51.957,52.656 14.95,0 29.305,-6.602 39.071,-17.996 3.109,-3.75 2.812,-9.153 -0.739,-12.305 -3.554,-3.301 -9.027,-2.851 -12.136,0.75 -6.66,7.649 -16.133,12.004 -26.196,12.004 -19.093,0 -34.789,-15.754 -34.789,-35.109 0,-19.493 15.696,-35.243 34.789,-35.243 10.063,0 19.536,4.344 26.196,12 3.109,3.594 8.582,4.043 12.136,0.754 3.551,-3.156 3.848,-8.554 0.739,-12.304 -9.766,-11.399 -24.121,-18 -39.071,-18" /><path
         id="path18"
         style="fill:#ffffff;fill-opacity:1;fill-rule:nonzero;stroke:none"
         d="m 645.547,232.75 c -19.238,0 -34.777,-15.91 -34.777,-35.254 0,-19.504 15.539,-35.246 34.777,-35.246 19.094,0 34.785,15.742 34.785,35.246 0,19.344 -15.691,35.254 -34.785,35.254 z m 0,-87.902 c -28.711,0 -51.945,23.547 -51.945,52.648 0,28.953 23.234,52.645 51.945,52.645 28.566,0 51.953,-23.692 51.953,-52.645 0,-29.101 -23.387,-52.648 -51.953,-52.648" /><path
         id="path20"
         style="fill:#ffffff;fill-opacity:1;fill-rule:nonzero;stroke:none"
         d="m 768.867,144.848 h -49.433 c -4.735,0 -8.582,3.898 -8.582,8.703 v 87.89 c 0,4.805 3.847,8.7 8.582,8.7 4.738,0 8.586,-3.895 8.586,-8.7 V 162.25 h 40.847 c 4.883,0 8.731,-3.906 8.731,-8.699 0,-4.805 -3.848,-8.703 -8.731,-8.703" /><path
         id="path22"
         style="fill:#ffffff;fill-opacity:1;fill-rule:nonzero;stroke:none"
         d="m 823.203,144.848 c -23.523,0 -42.625,19.347 -42.625,43.203 v 53.39 c 0,4.95 3.848,8.856 8.582,8.856 4.738,0 8.586,-3.906 8.586,-8.856 v -53.39 c 0,-14.102 11.406,-25.653 25.457,-25.653 13.918,0 25.313,11.551 25.313,25.653 v 53.39 c 0,4.95 3.847,8.856 8.73,8.856 4.738,0 8.586,-3.906 8.586,-8.856 v -53.39 c 0,-23.856 -19.094,-43.203 -42.629,-43.203" /><path
         id="path24"
         style="fill:#ffffff;fill-opacity:1;fill-rule:nonzero;stroke:none"
         d="m 965.762,144.848 c -4.735,0 -8.582,3.898 -8.582,8.847 v 59.25 l -23.235,-35.097 c -1.629,-2.403 -4.297,-3.899 -7.109,-3.899 -2.957,0 -5.625,1.496 -7.246,3.899 l -23.242,35.097 v -59.25 c 0,-4.949 -3.848,-8.847 -8.582,-8.847 -4.739,0 -8.586,3.898 -8.586,8.847 v 87.903 c 0,3.75 2.519,7.195 6.066,8.25 3.699,1.191 7.547,-0.301 9.617,-3.457 l 31.973,-47.996 31.828,47.996 c 2.07,3.156 5.918,4.648 9.617,3.457 3.555,-1.055 6.067,-4.5 6.067,-8.25 v -87.903 c 0,-4.949 -3.848,-8.847 -8.586,-8.847" /><path
         id="path26"
         style="fill:#ffffff;fill-opacity:1;fill-rule:nonzero;stroke:none"
         d="m 1050.74,176.5 c 0,7.949 -6.35,14.395 -14.05,14.395 h -31.83 V 162.25 h 31.83 c 7.7,0 14.05,6.445 14.05,14.25 z m -18.2,56.25 h -27.68 v -24.453 h 27.68 c 6.51,0 11.99,5.398 11.99,12.148 0,6.746 -5.48,12.305 -11.99,12.305 z m 35.38,-56.25 c 0,-17.402 -14.06,-31.652 -31.23,-31.652 h -40.409 c -4.738,0 -8.586,3.898 -8.586,8.703 v 87.89 c 0,4.805 3.848,8.7 8.586,8.7 h 36.259 c 15.99,0 29.16,-13.348 29.16,-29.696 0,-6.894 -2.37,-13.351 -6.37,-18.449 7.7,-5.848 12.59,-15 12.59,-25.496" /><path
         id="path28"
         style="fill:#ffffff;fill-opacity:1;fill-rule:nonzero;stroke:none"
         d="m 1090.59,144.848 c -4.74,0 -8.59,3.898 -8.59,8.703 v 87.89 c 0,4.805 3.85,8.7 8.59,8.7 4.73,0 8.73,-3.895 8.73,-8.7 v -87.89 c 0,-4.805 -4,-8.703 -8.73,-8.703" /><path
         id="path30"
         style="fill:#ffffff;fill-opacity:1;fill-rule:nonzero;stroke:none"
         d="m 1173.48,188.199 -13.63,31.492 -13.61,-31.492 z m 27.82,-42.597 c -1.18,-0.606 -2.36,-0.754 -3.55,-0.754 -3.26,0 -6.36,1.953 -7.85,5.254 l -8.87,20.695 h -42.34 l -8.87,-20.695 c -1.93,-4.5 -6.97,-6.454 -11.4,-4.5 -4.3,1.941 -6.22,7.05 -4.44,11.394 l 38.03,87.902 c 1.34,3.301 4.45,5.243 7.84,5.243 3.41,0 6.52,-1.942 7.86,-5.243 l 38.03,-87.902 c 1.93,-4.344 -0.14,-9.453 -4.44,-11.394" /><path
         id="path32"
         style="fill:#66c655;fill-opacity:1;fill-rule:nonzero;stroke:none"
         d="M 643.039,43.4336 629.414,74.9258 615.801,43.4336 Z m 27.82,-42.597662 c -1.179,-0.605469 -2.363,-0.7539067 -3.554,-0.7539067 -3.25,0 -6.356,1.9531287 -7.84,5.2539087 L 650.586,26.0313 H 608.258 L 599.375,5.33594 C 597.453,0.835938 592.418,-1.11719 587.98,0.835938 583.688,2.77734 581.766,7.88672 583.543,12.2305 l 38.031,87.9025 c 1.336,3.301 4.442,5.242 7.84,5.242 3.41,0 6.516,-1.941 7.852,-5.242 l 38.039,-87.9025 c 1.922,-4.34378 -0.149,-9.45316 -4.446,-11.394562" /><path
         id="path34"
         style="fill:#66c655;fill-opacity:1;fill-rule:nonzero;stroke:none"
         d="m 747.414,0.0820313 h -49.445 c -4.735,0 -8.582,3.8984387 -8.582,8.7031287 V 96.6758 c 0,4.8042 3.847,8.6992 8.582,8.6992 4.738,0 8.586,-3.895 8.586,-8.6992 V 17.4844 h 40.859 c 4.883,0 8.731,-3.9063 8.731,-8.69924 0,-4.80469 -3.848,-8.7031287 -8.731,-8.7031287" /><path
         id="path36"
         style="fill:#66c655;fill-opacity:1;fill-rule:nonzero;stroke:none"
         d="m 827.5,0.0820313 h -49.434 c -4.734,0 -8.582,3.8984387 -8.582,8.7031287 V 96.6758 c 0,4.8042 3.848,8.6992 8.582,8.6992 4.739,0 8.586,-3.895 8.586,-8.6992 V 17.4844 H 827.5 c 4.883,0 8.73,-3.9063 8.73,-8.69924 0,-4.80469 -3.847,-8.7031287 -8.73,-8.7031287" /><path
         id="path38"
         style="fill:#66c655;fill-opacity:1;fill-rule:nonzero;stroke:none"
         d="m 923.281,8.78516 c 0,-4.80469 -3.847,-8.7031287 -8.582,-8.7031287 h -56.543 c -4.738,0 -8.586,3.8984387 -8.586,8.7031287 V 96.6758 c 0,4.8042 3.848,8.8552 8.586,8.8552 h 56.543 c 4.735,0 8.582,-4.051 8.582,-8.8552 0,-4.7969 -3.847,-8.6914 -8.582,-8.6914 H 866.738 V 63.6758 h 33.457 c 4.739,0 8.586,-3.8945 8.586,-8.8477 0,-4.7929 -3.847,-8.6992 -8.586,-8.6992 H 866.738 V 17.6328 h 47.961 c 4.735,0 8.582,-3.8984 8.582,-8.84764" /><path
         id="path40"
         style="fill:#66c655;fill-opacity:1;fill-rule:nonzero;stroke:none"
         d="m 953.789,46.5781 h 20.285 c 11.25,0 20.274,9.3047 20.274,20.7032 0,11.3945 -9.024,20.7031 -20.274,20.7031 h -20.285 z m 54.181,-31.6406 c 3.25,-3.6055 3.11,-9.00391 -0.3,-12.45312 -1.62,-1.648442 -3.85,-2.4023487 -5.92,-2.4023487 -2.363,0 -4.59,0.8984377 -6.211,2.6953087 L 970.371,29.1836 H 953.789 V 8.78516 c 0,-4.80469 -3.848,-8.7031287 -8.582,-8.7031287 -4.738,0 -8.586,3.8984387 -8.586,8.7031287 V 96.6758 c 0,4.8042 3.848,8.6992 8.586,8.6992 h 28.867 c 20.723,0 37.596,-17.0977 37.596,-38.0937 0,-15 -8.58,-28.0469 -21.17,-34.1993 l 17.47,-18.1445" /><path
         id="path42"
         style="fill:#66c655;fill-opacity:1;fill-rule:nonzero;stroke:none"
         d="m 1076.96,0.0820313 c -28.56,0 -51.95,23.5468687 -51.95,52.6484687 0,28.9531 23.39,52.6445 51.95,52.6445 15.1,0 29.31,-6.6016 39.22,-17.9961 3.11,-3.5937 2.67,-9.1523 -0.89,-12.2969 -3.55,-3.1523 -9.02,-2.8515 -12.13,0.7422 -6.66,7.6563 -16.14,12.1602 -26.2,12.1602 -19.09,0 -34.78,-15.9102 -34.78,-35.2539 0,-19.5039 15.69,-35.2461 34.78,-35.2461 9.03,0 17.61,3.5937 24.13,9.7461 V 40.582 h -20.87 c -4.74,0 -8.59,3.8946 -8.59,8.6993 0,4.7968 3.85,8.7031 8.59,8.7031 h 29.45 c 4.74,0 8.58,-3.9063 8.58,-8.7031 V 23.7852 c 0,-2.1016 -0.73,-4.1993 -2.07,-5.7032 -9.91,-11.55466 -24.12,-17.9999687 -39.22,-17.9999687" /><path
         id="path44"
         style="fill:#66c655;fill-opacity:1;fill-rule:nonzero;stroke:none"
         d="M 1206.64,91.7344 1178.52,50.0352 V 8.78516 c 0,-4.80469 -3.85,-8.7031287 -8.73,-8.7031287 -4.74,0 -8.59,3.8984387 -8.59,8.7031287 V 50.0352 l -28.12,41.6992 c -2.66,4.0429 -1.62,9.4416 2.22,12.1486 4,2.695 9.33,1.648 11.99,-2.258 l 22.5,-33.4453 22.64,33.4453 c 2.67,3.906 8,4.953 11.99,2.258 3.85,-2.707 4.89,-8.1057 2.22,-12.1486" /><path
         id="path46"
         style="fill:#ffffff;fill-opacity:1;fill-rule:nonzero;stroke:none"
         d="m 458.625,114.102 c -4.078,7.074 -8.195,14.207 -12.27,21.281 -24.976,43.297 -49.921,86.551 -74.984,129.996 -14.976,-25.781 -29.195,-50.313 -43.48,-74.805 -14.278,-24.48 -28.446,-49.035 -42.996,-73.363 -2.864,-4.789 -5.625,-9.688 -8.411,-14.578 -4.832,-8.5119 -9.886,-16.8517 -15.711,-24.5041 -1.574,-2.0664 -3.066,-4.1953 -4.781,-6.125 -21.539,-24.2344 -50.004,-33.3086 -82.144,-27.4883 -19.993,3.625 -37.168,13.3125 -50.586,28.9532 -9.024,10.5156 -14.989,21.9804 -18.36,34.2072 -1.996,7.262 -2.996,14.812 -3.207,22.594 -0.121,4.648 -0.047,9.355 0.426,14.168 2.133,21.734 12.039,40.035 28.145,54.277 20.937,18.515 45.507,26.715 73.754,22.168 22.546,-3.633 40.918,-14.145 55.679,-31.567 0.887,-1.05 1.742,-2.05 2.586,-3.043 l 23.727,41.094 c -33.317,31.039 -73.535,43.656 -119.403,35.485 -51.336,-9.153 -85.0582,-41.743 -103.0035,-89.352 -4.6797,-12.41 -6.7188,-25.223 -6.6719,-38.281 0.0195,-5.961 0.457,-11.973 1.3242,-18.028 0.9024,-6.289 2.2305,-12.621 3.957,-18.9762 C 79.1719,35.6914 142.883,-8.85938 209.16,1.49219 c 42.477,6.63672 74.559,28.39451 96.125,65.04691 1.649,2.7968 3.227,5.6718 4.863,8.4804 5.204,8.9297 10.332,17.9688 15.457,26.9845 15.059,26.465 30.012,53.172 45.489,80.531 13.742,-23.449 26.797,-45.449 39.578,-67.597 0.144,-0.254 0.297,-0.508 0.441,-0.762 4.703,-8.156 9.375,-16.3283 14.059,-24.4924 16.328,-28.457 32.605,-56.9414 48.988,-85.36329 1.008,-1.74609 3.153,-3.992185 4.805,-4.027341 14.777,-0.3125003 29.562,-0.1875 45.41,-0.1875 C 502.34,38.3086 480.48,76.2109 458.625,114.102" /></g></g></svg>